<mxfile host="app.diagrams.net" modified="2023-05-15T05:43:23.843Z" agent="Mozilla/5.0 (Macintosh; Intel Mac OS X 10_15_7) AppleWebKit/537.36 (KHTML, like Gecko) Chrome/113.0.0.0 Safari/537.36" etag="StW-_MyRjnYObQRAypJJ" version="21.3.0" type="github">
  <diagram name="第 1 页" id="LqWQ0RNICOAFA0Gnph8X">
    <mxGraphModel dx="1405" dy="725" grid="0" gridSize="10" guides="1" tooltips="1" connect="1" arrows="1" fold="1" page="0" pageScale="1" pageWidth="827" pageHeight="1169" math="0" shadow="0">
      <root>
        <mxCell id="0" />
        <mxCell id="1" parent="0" />
        <mxCell id="yRmAt0LhoFn7XiFDa81c-5" style="edgeStyle=orthogonalEdgeStyle;rounded=0;orthogonalLoop=1;jettySize=auto;html=1;" edge="1" parent="1" source="yRmAt0LhoFn7XiFDa81c-1">
          <mxGeometry relative="1" as="geometry">
            <mxPoint x="410" y="180" as="targetPoint" />
          </mxGeometry>
        </mxCell>
        <mxCell id="yRmAt0LhoFn7XiFDa81c-7" value="筛选" style="edgeLabel;html=1;align=center;verticalAlign=middle;resizable=0;points=[];" vertex="1" connectable="0" parent="yRmAt0LhoFn7XiFDa81c-5">
          <mxGeometry x="-0.0974" y="-2" relative="1" as="geometry">
            <mxPoint as="offset" />
          </mxGeometry>
        </mxCell>
        <mxCell id="yRmAt0LhoFn7XiFDa81c-1" value="规划师后台端" style="rounded=1;whiteSpace=wrap;html=1;" vertex="1" parent="1">
          <mxGeometry x="130" y="150" width="120" height="60" as="geometry" />
        </mxCell>
        <mxCell id="yRmAt0LhoFn7XiFDa81c-23" value="" style="edgeStyle=orthogonalEdgeStyle;rounded=0;orthogonalLoop=1;jettySize=auto;html=1;strokeColor=#b85450;fillColor=#f8cecc;" edge="1" parent="1" source="yRmAt0LhoFn7XiFDa81c-3" target="yRmAt0LhoFn7XiFDa81c-22">
          <mxGeometry relative="1" as="geometry" />
        </mxCell>
        <mxCell id="yRmAt0LhoFn7XiFDa81c-25" value="待联系" style="edgeLabel;html=1;align=center;verticalAlign=middle;resizable=0;points=[];" vertex="1" connectable="0" parent="yRmAt0LhoFn7XiFDa81c-23">
          <mxGeometry x="-0.1478" relative="1" as="geometry">
            <mxPoint as="offset" />
          </mxGeometry>
        </mxCell>
        <mxCell id="yRmAt0LhoFn7XiFDa81c-3" value="规划师APP端" style="rounded=1;whiteSpace=wrap;html=1;" vertex="1" parent="1">
          <mxGeometry x="414" y="350" width="120" height="60" as="geometry" />
        </mxCell>
        <mxCell id="yRmAt0LhoFn7XiFDa81c-9" value="推荐给商家（选择商家列表推荐）" style="edgeStyle=orthogonalEdgeStyle;rounded=0;orthogonalLoop=1;jettySize=auto;html=1;" edge="1" parent="1" source="yRmAt0LhoFn7XiFDa81c-4" target="yRmAt0LhoFn7XiFDa81c-8">
          <mxGeometry relative="1" as="geometry">
            <Array as="points">
              <mxPoint x="710" y="180" />
              <mxPoint x="710" y="180" />
            </Array>
            <mxPoint as="offset" />
          </mxGeometry>
        </mxCell>
        <mxCell id="yRmAt0LhoFn7XiFDa81c-18" style="edgeStyle=orthogonalEdgeStyle;rounded=0;orthogonalLoop=1;jettySize=auto;html=1;entryX=0.5;entryY=0;entryDx=0;entryDy=0;strokeColor=#b85450;fillColor=#f8cecc;" edge="1" parent="1" source="yRmAt0LhoFn7XiFDa81c-4" target="yRmAt0LhoFn7XiFDa81c-3">
          <mxGeometry relative="1" as="geometry" />
        </mxCell>
        <mxCell id="yRmAt0LhoFn7XiFDa81c-19" value="分配（或领取）" style="edgeLabel;html=1;align=center;verticalAlign=middle;resizable=0;points=[];" vertex="1" connectable="0" parent="yRmAt0LhoFn7XiFDa81c-18">
          <mxGeometry x="-0.0429" y="-1" relative="1" as="geometry">
            <mxPoint as="offset" />
          </mxGeometry>
        </mxCell>
        <mxCell id="yRmAt0LhoFn7XiFDa81c-4" value="客户列表" style="rounded=1;whiteSpace=wrap;html=1;" vertex="1" parent="1">
          <mxGeometry x="414" y="150" width="120" height="60" as="geometry" />
        </mxCell>
        <mxCell id="yRmAt0LhoFn7XiFDa81c-34" value="" style="edgeStyle=orthogonalEdgeStyle;rounded=0;orthogonalLoop=1;jettySize=auto;html=1;" edge="1" parent="1" source="yRmAt0LhoFn7XiFDa81c-8" target="yRmAt0LhoFn7XiFDa81c-33">
          <mxGeometry relative="1" as="geometry" />
        </mxCell>
        <mxCell id="yRmAt0LhoFn7XiFDa81c-35" value="待联系（确认客资）" style="edgeLabel;html=1;align=center;verticalAlign=middle;resizable=0;points=[];" vertex="1" connectable="0" parent="yRmAt0LhoFn7XiFDa81c-34">
          <mxGeometry x="-0.5143" y="1" relative="1" as="geometry">
            <mxPoint x="39" y="1" as="offset" />
          </mxGeometry>
        </mxCell>
        <mxCell id="yRmAt0LhoFn7XiFDa81c-8" value="商家端APP" style="whiteSpace=wrap;html=1;rounded=1;" vertex="1" parent="1">
          <mxGeometry x="840" y="150" width="120" height="60" as="geometry" />
        </mxCell>
        <mxCell id="yRmAt0LhoFn7XiFDa81c-10" value="主、子账户（店铺）" style="whiteSpace=wrap;html=1;rounded=1;" vertex="1" parent="1">
          <mxGeometry x="630" y="250" width="120" height="60" as="geometry" />
        </mxCell>
        <mxCell id="yRmAt0LhoFn7XiFDa81c-27" value="批量推荐" style="edgeStyle=orthogonalEdgeStyle;rounded=0;orthogonalLoop=1;jettySize=auto;html=1;entryX=0.5;entryY=1;entryDx=0;entryDy=0;strokeColor=#b85450;fillColor=#f8cecc;" edge="1" parent="1" source="yRmAt0LhoFn7XiFDa81c-22" target="yRmAt0LhoFn7XiFDa81c-8">
          <mxGeometry relative="1" as="geometry" />
        </mxCell>
        <mxCell id="yRmAt0LhoFn7XiFDa81c-22" value="待联系列表" style="whiteSpace=wrap;html=1;rounded=1;" vertex="1" parent="1">
          <mxGeometry x="840" y="350" width="120" height="60" as="geometry" />
        </mxCell>
        <mxCell id="yRmAt0LhoFn7XiFDa81c-28" value="" style="endArrow=classic;html=1;rounded=0;entryX=-0.033;entryY=0.15;entryDx=0;entryDy=0;entryPerimeter=0;dashed=1;" edge="1" parent="1" target="yRmAt0LhoFn7XiFDa81c-10">
          <mxGeometry width="50" height="50" relative="1" as="geometry">
            <mxPoint x="530" y="210" as="sourcePoint" />
            <mxPoint x="670" y="250" as="targetPoint" />
          </mxGeometry>
        </mxCell>
        <mxCell id="yRmAt0LhoFn7XiFDa81c-29" value="顺序轮询推荐（发送微信公众号消息）" style="edgeLabel;html=1;align=center;verticalAlign=middle;resizable=0;points=[];" vertex="1" connectable="0" parent="yRmAt0LhoFn7XiFDa81c-28">
          <mxGeometry x="-0.4692" y="1" relative="1" as="geometry">
            <mxPoint x="44" y="8" as="offset" />
          </mxGeometry>
        </mxCell>
        <mxCell id="yRmAt0LhoFn7XiFDa81c-30" value="" style="endArrow=classic;html=1;rounded=0;exitX=0;exitY=0;exitDx=0;exitDy=0;dashed=1;fillColor=#f8cecc;strokeColor=#b85450;" edge="1" parent="1" source="yRmAt0LhoFn7XiFDa81c-22">
          <mxGeometry width="50" height="50" relative="1" as="geometry">
            <mxPoint x="780" y="340" as="sourcePoint" />
            <mxPoint x="750" y="310" as="targetPoint" />
          </mxGeometry>
        </mxCell>
        <mxCell id="yRmAt0LhoFn7XiFDa81c-31" value="顺序轮询推荐（发送微信公众号消息、PUSH消息）" style="edgeLabel;html=1;align=center;verticalAlign=middle;resizable=0;points=[];" vertex="1" connectable="0" parent="yRmAt0LhoFn7XiFDa81c-30">
          <mxGeometry x="0.1175" y="-1" relative="1" as="geometry">
            <mxPoint x="-40" y="3" as="offset" />
          </mxGeometry>
        </mxCell>
        <mxCell id="yRmAt0LhoFn7XiFDa81c-32" value="" style="endArrow=classic;html=1;rounded=0;exitX=0;exitY=1;exitDx=0;exitDy=0;entryX=1;entryY=0;entryDx=0;entryDy=0;" edge="1" parent="1" source="yRmAt0LhoFn7XiFDa81c-8" target="yRmAt0LhoFn7XiFDa81c-10">
          <mxGeometry width="50" height="50" relative="1" as="geometry">
            <mxPoint x="780" y="280" as="sourcePoint" />
            <mxPoint x="830" y="230" as="targetPoint" />
          </mxGeometry>
        </mxCell>
        <mxCell id="yRmAt0LhoFn7XiFDa81c-36" style="edgeStyle=orthogonalEdgeStyle;rounded=0;orthogonalLoop=1;jettySize=auto;html=1;entryX=0.5;entryY=1;entryDx=0;entryDy=0;" edge="1" parent="1" source="yRmAt0LhoFn7XiFDa81c-33" target="yRmAt0LhoFn7XiFDa81c-3">
          <mxGeometry relative="1" as="geometry">
            <Array as="points">
              <mxPoint x="1203" y="487" />
              <mxPoint x="474" y="487" />
            </Array>
          </mxGeometry>
        </mxCell>
        <mxCell id="yRmAt0LhoFn7XiFDa81c-37" value="发送微信公众号消息、PUSH消息（客资有效性）" style="edgeLabel;html=1;align=center;verticalAlign=middle;resizable=0;points=[];" vertex="1" connectable="0" parent="yRmAt0LhoFn7XiFDa81c-36">
          <mxGeometry x="0.2117" y="-4" relative="1" as="geometry">
            <mxPoint x="12" y="2" as="offset" />
          </mxGeometry>
        </mxCell>
        <mxCell id="yRmAt0LhoFn7XiFDa81c-33" value="平台客资推荐" style="whiteSpace=wrap;html=1;rounded=1;" vertex="1" parent="1">
          <mxGeometry x="1130" y="150" width="120" height="60" as="geometry" />
        </mxCell>
      </root>
    </mxGraphModel>
  </diagram>
</mxfile>
